<mxfile host="app.diagrams.net" modified="2023-05-24T13:23:21.115Z" agent="Mozilla/5.0 (Windows NT 10.0; Win64; x64) AppleWebKit/537.36 (KHTML, like Gecko) Chrome/113.0.0.0 Safari/537.36" etag="wOeHpJdU9eIUJZcYQW_Y" version="21.3.3" type="github">
  <diagram name="第 1 页" id="4erympM8KQyrYWYqjpYL">
    <mxGraphModel dx="1050" dy="485" grid="1" gridSize="10" guides="1" tooltips="1" connect="1" arrows="1" fold="1" page="1" pageScale="1" pageWidth="3300" pageHeight="4681" math="0" shadow="0">
      <root>
        <mxCell id="0" />
        <mxCell id="1" parent="0" />
        <mxCell id="_oictWl11wk0APwV5P48-9" style="edgeStyle=orthogonalEdgeStyle;rounded=0;orthogonalLoop=1;jettySize=auto;html=1;exitX=0.5;exitY=1;exitDx=0;exitDy=0;" edge="1" parent="1" source="_oictWl11wk0APwV5P48-1" target="_oictWl11wk0APwV5P48-2">
          <mxGeometry relative="1" as="geometry" />
        </mxCell>
        <mxCell id="_oictWl11wk0APwV5P48-10" style="edgeStyle=orthogonalEdgeStyle;rounded=0;orthogonalLoop=1;jettySize=auto;html=1;exitX=0.5;exitY=1;exitDx=0;exitDy=0;entryX=0.5;entryY=0;entryDx=0;entryDy=0;" edge="1" parent="1" source="_oictWl11wk0APwV5P48-1" target="_oictWl11wk0APwV5P48-3">
          <mxGeometry relative="1" as="geometry" />
        </mxCell>
        <mxCell id="_oictWl11wk0APwV5P48-1" value="学生功能模块" style="rounded=0;whiteSpace=wrap;html=1;" vertex="1" parent="1">
          <mxGeometry x="480" y="80" width="120" height="60" as="geometry" />
        </mxCell>
        <mxCell id="_oictWl11wk0APwV5P48-11" style="edgeStyle=orthogonalEdgeStyle;rounded=0;orthogonalLoop=1;jettySize=auto;html=1;exitX=0.5;exitY=1;exitDx=0;exitDy=0;entryX=0.5;entryY=0;entryDx=0;entryDy=0;" edge="1" parent="1" source="_oictWl11wk0APwV5P48-2" target="_oictWl11wk0APwV5P48-4">
          <mxGeometry relative="1" as="geometry" />
        </mxCell>
        <mxCell id="_oictWl11wk0APwV5P48-12" style="edgeStyle=orthogonalEdgeStyle;rounded=0;orthogonalLoop=1;jettySize=auto;html=1;exitX=0.5;exitY=1;exitDx=0;exitDy=0;entryX=0.5;entryY=0;entryDx=0;entryDy=0;" edge="1" parent="1" source="_oictWl11wk0APwV5P48-2" target="_oictWl11wk0APwV5P48-5">
          <mxGeometry relative="1" as="geometry" />
        </mxCell>
        <mxCell id="_oictWl11wk0APwV5P48-13" style="edgeStyle=orthogonalEdgeStyle;rounded=0;orthogonalLoop=1;jettySize=auto;html=1;exitX=0.5;exitY=1;exitDx=0;exitDy=0;entryX=0.5;entryY=0;entryDx=0;entryDy=0;" edge="1" parent="1" source="_oictWl11wk0APwV5P48-2" target="_oictWl11wk0APwV5P48-6">
          <mxGeometry relative="1" as="geometry" />
        </mxCell>
        <mxCell id="_oictWl11wk0APwV5P48-2" value="课程功能" style="rounded=0;whiteSpace=wrap;html=1;" vertex="1" parent="1">
          <mxGeometry x="300" y="200" width="120" height="60" as="geometry" />
        </mxCell>
        <mxCell id="_oictWl11wk0APwV5P48-14" style="edgeStyle=orthogonalEdgeStyle;rounded=0;orthogonalLoop=1;jettySize=auto;html=1;exitX=0.5;exitY=1;exitDx=0;exitDy=0;" edge="1" parent="1" source="_oictWl11wk0APwV5P48-3" target="_oictWl11wk0APwV5P48-7">
          <mxGeometry relative="1" as="geometry" />
        </mxCell>
        <mxCell id="_oictWl11wk0APwV5P48-15" style="edgeStyle=orthogonalEdgeStyle;rounded=0;orthogonalLoop=1;jettySize=auto;html=1;exitX=0.5;exitY=1;exitDx=0;exitDy=0;" edge="1" parent="1" source="_oictWl11wk0APwV5P48-3" target="_oictWl11wk0APwV5P48-8">
          <mxGeometry relative="1" as="geometry" />
        </mxCell>
        <mxCell id="_oictWl11wk0APwV5P48-3" value="课后功能" style="rounded=0;whiteSpace=wrap;html=1;" vertex="1" parent="1">
          <mxGeometry x="660" y="200" width="120" height="60" as="geometry" />
        </mxCell>
        <mxCell id="_oictWl11wk0APwV5P48-4" value="加入课程" style="rounded=0;whiteSpace=wrap;html=1;" vertex="1" parent="1">
          <mxGeometry x="120" y="320" width="120" height="60" as="geometry" />
        </mxCell>
        <mxCell id="_oictWl11wk0APwV5P48-5" value="课程学习" style="rounded=0;whiteSpace=wrap;html=1;" vertex="1" parent="1">
          <mxGeometry x="300" y="320" width="120" height="60" as="geometry" />
        </mxCell>
        <mxCell id="_oictWl11wk0APwV5P48-6" value="获取课程资源" style="rounded=0;whiteSpace=wrap;html=1;" vertex="1" parent="1">
          <mxGeometry x="480" y="320" width="120" height="60" as="geometry" />
        </mxCell>
        <mxCell id="_oictWl11wk0APwV5P48-7" value="讨论答疑" style="rounded=0;whiteSpace=wrap;html=1;" vertex="1" parent="1">
          <mxGeometry x="660" y="320" width="120" height="60" as="geometry" />
        </mxCell>
        <mxCell id="_oictWl11wk0APwV5P48-8" value="完成课程任务" style="rounded=0;whiteSpace=wrap;html=1;" vertex="1" parent="1">
          <mxGeometry x="850" y="320" width="120" height="60" as="geometry" />
        </mxCell>
      </root>
    </mxGraphModel>
  </diagram>
</mxfile>
